<?xml version="1.0" encoding="UTF-8"?>
<!DOCTYPE svg PUBLIC "-//W3C//DTD SVG 1.1//EN" "http://www.w3.org/Graphics/SVG/1.1/DTD/svg11.dtd">
<svg xmlns="http://www.w3.org/2000/svg" version="1.1" width="512px" height="512px" style="shape-rendering:geometricPrecision; text-rendering:geometricPrecision; image-rendering:optimizeQuality; fill-rule:evenodd; clip-rule:evenodd"
    xmlns:xlink="http://www.w3.org/1999/xlink">
    <g>
        <path style="opacity:1" fill="#1d4ed8" d="M 232.5,-0.5 C 247.833,-0.5 263.167,-0.5 278.5,-0.5C 358.893,9.09801 422.393,46.7647 469,112.5C 492.821,149.131 506.987,189.131 511.5,232.5C 511.5,247.833 511.5,263.167 511.5,278.5C 501.902,358.893 464.235,422.393 398.5,469C 361.869,492.821 321.869,506.987 278.5,511.5C 263.167,511.5 247.833,511.5 232.5,511.5C 152.107,501.902 88.6066,464.235 42,398.5C 18.1794,361.869 4.01272,321.869 -0.5,278.5C -0.5,263.167 -0.5,247.833 -0.5,232.5C 9.09801,152.107 46.7647,88.6066 112.5,42C 149.131,18.1794 189.131,4.01272 232.5,-0.5 Z"/>
    </g>
    <g>
        <path style="opacity:0.996" fill="#ffffff" d="M 245.5,132.5 C 296.815,129.727 320.315,154.06 316,205.5C 314.883,213.536 313.55,221.536 312,229.5C 302.925,257.725 293.259,285.725 283,313.5C 278.764,340.652 286.931,345.486 307.5,328C 317.167,319.667 326.167,310.667 334.5,301C 337.835,298.709 340.668,299.209 343,302.5C 349.144,272.972 356.144,243.638 364,214.5C 369.334,195.499 375.667,176.833 383,158.5C 386.448,149.413 391.948,141.913 399.5,136C 414.555,130.366 421.888,135.699 421.5,152C 420.94,159.859 420.107,167.692 419,175.5C 409.58,217.023 400.913,258.69 393,300.5C 389.502,324.486 387.002,348.486 385.5,372.5C 383.972,373.861 382.305,375.028 380.5,376C 370.1,377.469 360.1,376.135 350.5,372C 345.969,368.429 342.802,363.929 341,358.5C 339.85,349.209 339.184,339.876 339,330.5C 326.384,352.443 307.884,366.943 283.5,374C 252.479,381.119 237.145,368.952 237.5,337.5C 239.252,316.325 243.919,295.825 251.5,276C 228.558,274.045 205.558,273.212 182.5,273.5C 178.864,301.4 176.698,329.4 176,357.5C 174.371,361.931 171.871,365.764 168.5,369C 159.896,374.47 150.563,377.97 140.5,379.5C 136.406,379.702 132.906,378.369 130,375.5C 127.34,371.186 125.673,366.519 125,361.5C 124.333,351.833 124.333,342.167 125,332.5C 128.047,313.981 131.881,295.647 136.5,277.5C 125.786,278.149 115.119,279.316 104.5,281C 100.167,281.667 95.8333,281.667 91.5,281C 88.9787,277.518 89.1453,274.018 92,270.5C 99.1753,261.997 108.009,255.83 118.5,252C 128.336,248.387 138.336,245.387 148.5,243C 159.883,213.38 175.716,186.547 196,162.5C 209.666,147.635 226.166,137.635 245.5,132.5 Z"/>
    </g>
    <g>
        <path style="opacity:1" fill="#1d4ed8" d="M 239.5,176.5 C 245.925,176.13 252.258,176.63 258.5,178C 265.488,181.673 269.321,187.506 270,195.5C 270.921,211.063 268.421,226.063 262.5,240.5C 238.174,241.666 213.84,241.833 189.5,241C 195.137,219.043 206.137,200.376 222.5,185C 227.98,181.593 233.647,178.76 239.5,176.5 Z"/>
    </g>
</svg>
