<?xml version="1.0" standalone="no"?>
<!DOCTYPE svg PUBLIC "-//W3C//DTD SVG 20010904//EN"
 "http://www.w3.org/TR/2001/REC-SVG-20010904/DTD/svg10.dtd">
<svg version="1.0" xmlns="http://www.w3.org/2000/svg"
 width="410.000000pt" height="261.000000pt" viewBox="0 0 410.000000 261.000000"
 preserveAspectRatio="xMidYMid meet">

<g transform="translate(0.000000,261.000000) scale(0.100000,-0.100000)"
fill="#000000" stroke="none">
<path d="M284 2395 c-4 -9 28 -52 88 -117 257 -282 365 -392 395 -404 23 -10
82 -14 202 -14 195 0 237 -10 271 -65 26 -42 26 -50 -7 -240 -25 -153 -26
-162 -10 -195 30 -62 40 -64 271 -70 l209 -5 19 -25 c19 -26 18 -28 -37 -345
-30 -176 -66 -381 -80 -455 -14 -74 -27 -155 -28 -180 -3 -72 24 -64 113 33
41 46 208 226 371 402 381 413 360 388 365 432 6 47 -11 81 -55 110 -33 23
-40 23 -298 23 -167 0 -272 4 -284 11 -37 19 -38 47 -8 222 42 255 47 271 77
300 15 14 40 31 55 36 19 7 220 11 598 11 459 0 576 3 602 14 18 7 78 62 134
122 299 323 354 386 350 397 -3 9 -381 13 -1656 15 -1450 2 -1652 0 -1657 -13z"/>
</g>
</svg>
